.
 
http://www.scenetime.com    -   SceneTime [ We been having it ] !!!


How come you press harder on a remote control when you know the battery is dead? so you better seed to get speed ;)

        Seed back for speed


...................................NFO:.................................................








































          
          
              
              
                    
                    
                    
                    

Beautiful.Boy.2010.BRRip.Xvid.AC3-SiC

Poster:
[img]http://img14.imageshack.us/img14/2695/3e884a45d378b53cd0c2b61.jpg[/img]

IMDB Link:
http://www.imdb.com/title/tt1533013/

Description:
A married couple on the verge of separation   
are leveled by the news their 18-year-old son committed a mass shooting at his 
college, then took his own life.

MediaInfo:
General
Complete name                    : Beautiful.Boy.2010.BRRip.Xvid.AC3-SiC.avi
Format                           : AVI
Format/Info                      : Audio Video Interleave
File size                        : 1.30 GiB
Duration                         : 1h 40mn
Overall bit rate                 : 1 854 Kbps

Video
ID                               : 0
Format                           : MPEG-4 Visual
Format profile                   : Advanced Simple@L5
Format settings, BVOP            : Yes
Format settings, QPel            : No
Format settings, GMC             : No warppoints
Format settings, Matrix          : Default (H.263)
Muxing mode                      : Packed bitstream
Codec ID                         : XVID
Codec ID/Hint                    : XviD
Duration                         : 1h 40mn
Bit rate                         : 1 462 Kbps
Width                            : 720 pixels
Height                           : 384 pixels
Display aspect ratio             : 1.875
Frame rate                       : 24.000 fps
Resolution                       : 8 bits
Colorimetry                      : 4:2:0
Scan type                        : Progressive
Bits/(Pixel*Frame)               : 0.220
Stream size                      : 1.02 GiB (79%)
Writing library                  : XviD 64

Audio
ID                               : 1
Format                           : AC-3
Format/Info                      : Audio Coding 3
Format_Settings_ModeExtension    : CM (complete main)
Codec ID                         : 2000
Duration                         : 1h 40mn
Bit rate mode                    : Constant
Bit rate                         : 384 Kbps
Channel(s)                       : 6 channels
Channel positions                : Front: L C R, Side: L R, LFE
Sampling rate                    : 48.0 KHz
Stream size                      : 275 MiB (21%)
Alignment                        : Aligned on interleaves
Interleave, duration             : 64 ms (1.54 video frames)
Interleave, preload duration     : 192 ms
Title                            : 6ch English

Screenshots:
[img]http://img41.imageshack.us/img41/6337/beautifulboy2010brripxv.png[/img]
[img]http://img215.imageshack.us/img215/6337/beautifulboy2010brripxv.png[/img]
[img]http://img534.imageshack.us/img534/6337/beautifulboy2010brripxv.png[/img]
[img]http://img29.imageshack.us/img29/592/vlcsnap2011080521h04m27.png[/img]
[img]http://img42.imageshack.us/img42/5274/vlcsnap2011080521h04m56.png[/img]

Note :   N/A 

Source : BluRay-SAiMORNY Thanks!!!

Encoder: Bezauk

Enjoy!

Respects to CaptainHomey, Cyanide, CM8, Rx, THC, ELEKTRI4KA, 
Killerhz, PA, YeFsTe, BoxSlots, MrRep and everyone in the struggle...